Chicago cop Johnny Kelly, dissatisfied with his job and marriage, would like to run away with his stripper girlfriend Angel Face, but keeps getting cold feet. During one crowded night, Angel Face decides she's had enough vacillation, and crooked lawyer Biddel has an illegal mission for Johnny that could put him in a financial position to act. But other, conflicting schemes are also in progress...

Gig Young		Johnny Kelly
Mala Powers		Sally (Angel Face) Conners
William Talman		Hayes Stewart
Edward Arnold		Penrod Biddel
Chill Wills		Sgt. Joe
Tom Poston		Detective

   Video #0
      ID : 0
      Format : MPEG-4 Visual
      Format profile : AdvancedSimple@L5
      Format settings, BVOP : Yes
      Format settings, QPel : Yes
      Format settings, GMC : 3 warppoints
      Format settings, Matrix : Default (H.263)
      Codec ID : XVID
      Codec ID/Hint : XviD
      Duration : 1h 26mn
      Bit rate : 1 199 Kbps
      Width : 768 pixels
      Height : 576 pixels
      Display aspect ratio : 4:3
      Frame rate : 25.000 fps
      Resolution : 24 bits
      Colorimetry : 4:2:0
      Scan type : Progressive
      Bits/(Pixel*Frame) : 0.108
      Stream size : 741 MiB (88%)
      Writing library : XviD 1.2.0SMP (UTC 2006-01-08)
   Audio #1
      ID : 1
      Format : MPEG Audio
      Format version : Version 1
      Format profile : Layer 3
      Codec ID : 55
      Codec ID/Hint : MP3
      Duration : 1h 26mn
      Bit rate mode : Constant
      Bit rate : 160 Kbps
      Channel(s) : 2 channels
      Sampling rate : 48.0 KHz
      Resolution : 16 bits
      Stream size : 98.9 MiB (12%)
      Alignment : Split accross interleaves
      Interleave, duration : 40 ms (1.00 video frame)
      Interleave, preload duration : 500 ms
